<svg xmlns="http://www.w3.org/2000/svg" width="232.941" height="27"><path d="M92.941 18.892l1.979-2.369c1.369 1.131 2.805 1.848 4.544 1.848 1.37 0 2.196-.543 2.196-1.435v-.043c0-.848-.522-1.283-3.066-1.935-3.066-.782-5.044-1.63-5.044-4.653v-.045c0-2.762 2.218-4.588 5.327-4.588 2.218 0 4.109.696 5.653 1.935l-1.739 2.522c-1.348-.935-2.675-1.5-3.957-1.5-1.283 0-1.957.587-1.957 1.326V10c0 1 .652 1.326 3.283 2 3.088.805 4.826 1.914 4.826 4.566v.043c0 3.024-2.305 4.719-5.588 4.719-2.305 0-4.631-.805-6.457-2.436zm17.637-9.914h-4.631V5.89h12.611v3.088h-4.631v12.133h-3.35V8.978zm10.115-3.088h11.481v2.979h-8.154v3.087h7.176v2.979h-7.176v3.196h8.264v2.98h-11.59V5.89zm14.289 0h3.349v15.221h-3.349V5.89zm6.722 0h3.087l7.133 9.372V5.89h3.305v15.221h-2.849l-7.371-9.676v9.676h-3.305V5.89zm16.746 0h3.349v6.023h6.176V5.89h3.349v15.221h-3.349V15h-6.176v6.11h-3.349V5.89zm20.879-.109h3.088l6.523 15.33h-3.5l-1.392-3.414h-6.436l-1.392 3.414h-3.414l6.523-15.33zm3.522 8.959l-2.022-4.936-2.021 4.936h4.043zm7.572-8.85h6.958c1.936 0 3.436.543 4.436 1.544.849.848 1.305 2.044 1.305 3.479v.044c0 2.457-1.326 4-3.261 4.718l3.718 5.437h-3.914l-3.262-4.871h-2.631v4.871h-3.349V5.89zm6.742 7.393c1.631 0 2.565-.87 2.565-2.153v-.043c0-1.435-1-2.174-2.631-2.174h-3.327v4.371h3.393zm8.547-7.393h5.936c4.783 0 8.089 3.283 8.089 7.567v.043c0 4.284-3.306 7.611-8.089 7.611h-5.936V5.89zm5.937 12.197c2.739 0 4.588-1.848 4.588-4.544V13.5c0-2.696-1.849-4.588-4.588-4.588h-2.588v9.175h2.588zm13.312-9.109h-4.632V5.89h12.611v3.088h-4.631v12.133h-3.349V8.978zM86.281 0h.59v27h-.59zM34 5.936h3.111l7.185 9.443V5.936h3.33v15.335h-2.871l-7.426-9.749v9.749H34V5.936zm21.205 9.288L49.31 5.936h3.945l3.658 6.157 3.725-6.157h3.834L58.58 15.16v6.111h-3.375v-6.047zm10.712-.525V5.936h3.373v8.676c0 2.497 1.248 3.79 3.309 3.79 2.059 0 3.307-1.249 3.307-3.68V5.936h3.373v8.654c0 4.644-2.605 6.922-6.725 6.922-4.119-.001-6.637-2.3-6.637-6.813zM26.997 27H0V0h26.997v27zm-14.432-3.157c.03.189.44.283.533 0l.943-7.479h-2.294l.818 7.479zm2.278-8.019v-1.135h-3.896v1.135h3.896zm-1.123-1.688c4.938.179 5.289-4.323 5.309-6.008.002-.098-.046-.107-.071-.038-.144.351-.788 1.607-2.569 2.37-1.59.683-2.548 2.232-2.713 3.624-.01.033.019.051.044.052zm-.544-.326c.782-3.748 3.833-3.84 4.106-4.551.427-1.11-.353-3.078-.552-3.312-.02-.024-.047-.01-.056.012-.416.908-1.086 1.773-1.575 2.17-.691.558-3.342 2.522-1.986 5.684.015.039.054.03.063-.003zm-.538.15c-1.654-3.535 1.653-5.817 2.193-6.311.076-.07.056-.134.058-.213.001-1.112-.636-2.914-.845-3.171-.029-.039-.056-.023-.066.018-.283 1.098-1.791 2.732-2.092 3.09-2.556 3.037-1.971 4.886.696 6.631.033.021.074-.002.056-.044zm-.743.123c-2.767-1.653-2.49-4.01-1.343-5.743.024-.037.033-.097.025-.168-.048-.412-.497-1.454-.685-1.737-.048-.073-.09-.067-.092-.016-.016.472-.555 1.653-1.374 3.014-.874 1.45-.876 4.592 3.46 4.715.039.001.05-.041.009-.065z" fill="#FFF"/></svg>